{"title":"The.Funeral.1996.WS.DVDRip.XviD-SPRiNTER","uid":6815916,"size":734345290,"categoryP":"video","categoryS":"movies","magnet":"?xt=urn:btih:8d67ae0ff172f0206bce273bccf7d0ee782f9dd0&amp;dn=The.Funeral.1996.WS.DVDRip.XviD-SPRiNTER&amp;tr=udp%3A%2F%2Ftracker.openbittorrent.com%3A80&amp;tr=udp%3A%2F%2Fopen.demonii.com%3A1337&amp;tr=udp%3A%2F%2Ftracker.coppersurfer.tk%3A6969&amp;tr=udp%3A%2F%2Fexodus.desync.com%3A6969","seeders":4,"leechers":1,"uploader":"LegendET","files":6,"time":1321204770,"description":"[center][img]http://www.theumbrellacorporation.me/imdb/images/0116378_big.jpg[/img]\n\nARTiCHOKE\n\nSPRiNTER proudly presents\n\nThe.Funeral.1996.WS.DVDRip.XviD-SPRiNTER &lt;a href=&quot;\nhttp://www.imdb.com/title/tt0116378/&quot; rel=&quot;nofollow&quot; target=&quot;_NEW&quot;&gt;\nhttp://www.imdb.com/title/tt0116378/&lt;/a&gt;\nSubs: English\nDate: 2011.11\n\nRelease notes\n\n* AEN release is FS. Samples included\n* English subs included for the Italian parts\n\nGreetings\n\nNTX FiCO HNR CiNEFiLE AEN HUMANiSM TASTE 0MNiDVD\n\nDetails\n\nFormat: AVI\nFormat/Info: Audio Video Interleave\nFile size: 700 MiB\nDuration: 1h 35mn\nOverall bit rate: 1 029 Kbps\nWriting application: Nandub v1.0rc2\nWriting library: Nandub build 1852/release\n\nVideo\nID: 0\nFormat: MPEG-4 Visual\nFormat profile: Advanced Simple@L5\nFormat settings, BVOP: No\nFormat settings, QPel: No\nFormat settings, GMC: No warppoints\nFormat settings, Matrix: Default (H.263)\nCodec ID: XVID\nCodec ID/Hint: XviD\nDuration: 1h 35mn\nBit rate: 896 Kbps\nWidth: 624 pixels\nHeight: 336 pixels\nDisplay aspect ratio: 1.857\nFrame rate: 25.000 fps\nColor space: YUV\nChroma subsampling: 4:2:0\nBit depth: 8 bits\nScan type: Progressive\nCompression mode: Lossy\nBits/(Pixel*Frame): 0.171\nStream size: 610 MiB (87%)\nWriting library: XviD 64\n\nAudio\nID: 1\nFormat: MPEG Audio\nFormat version: Version 1\nFormat profile: Layer 3\nMode: Joint stereo\nMode extension: MS Stereo\nCodec ID: 55\nCodec ID/Hint: MP3\nDuration: 1h 35mn\nBit rate mode: Variable\nBit rate: 120 Kbps\nNominal bit rate: 128 Kbps\nChannel(s): 2 channels\nSampling rate: 48.0 KHz\nCompression mode: Lossy\nStream size: 81.8 MiB (12%)\nAlignment: Aligned on interleaves\nInterleave, duration: 24 ms (0.60 video frame)\nInterleave, preload duration: 147 ms\nWriting library: LAME3.98r\nEncoding settings: -m j -V 4 -q 3 -lowpass 17 --abr 128[/center]","torrent":{"xt":"urn:btih:8d67ae0ff172f0206bce273bccf7d0ee782f9dd0","amp;dn":"The.Funeral.1996.WS.DVDRip.XviD-SPRiNTER","amp;tr":["udp%3A%2F%2Ftracker.openbittorrent.com%3A80","udp%3A%2F%2Fopen.demonii.com%3A1337","udp%3A%2F%2Ftracker.coppersurfer.tk%3A6969","udp%3A%2F%2Fexodus.desync.com%3A6969"],"infoHash":"8d67ae0ff172f0206bce273bccf7d0ee782f9dd0","infoHashBuffer":{"type":"Buffer","data":[141,103,174,15,241,114,240,32,107,206,39,59,204,247,208,238,120,47,157,208]},"announce":[],"urlList":[]}}